<svg width="191" height="53" viewBox="0 0 191 53" fill="none" xmlns="http://www.w3.org/2000/svg">
<g clip-path="url(#clip0)">
<path d="M43.9115 9.29176C40.2473 9.29176 36.7255 12.3693 36.7276 16.0607V24.6796C36.7276 28.371 40.2494 31.4465 43.9136 31.4465L55.8484 31.3979V25.1753H45.1092C42.9107 25.1605 42.3872 24.1649 42.3872 22.6441H57.1047V14.8647V9.29176H43.9115ZM51.9602 17.6449H42.3935V17.2525C42.3935 15.9869 42.9086 15.1432 45.1155 15.1242H51.9685L51.9602 17.6449Z" fill="#E2F434"/>
<path d="M7.18388 9.29599C3.5218 9.29599 0 12.3715 0 16.0628V24.6796C0 28.371 3.5218 31.4465 7.18598 31.4465L19.1207 31.398V25.1753H8.37526C6.17676 25.1606 5.6533 24.1649 5.6533 22.6441H20.3833V14.8668V9.29388L7.18388 9.29599ZM15.2325 17.6491H5.66587V17.2546C5.66587 15.989 6.18304 15.1453 8.38783 15.1284H15.2325V17.6491Z" fill="#E2F434"/>
<path d="M62.2868 9.29176H84.3284V31.4064H68.9179V39.5443H62.2889L62.2868 9.29176ZM68.9179 24.7724H77.6994V15.9257H68.9179V24.7724Z" fill="#E2F434"/>
<path d="M89.5064 0H96.1355V20.5685L104.128 9.28122H110.763V31.4043H104.13V20.1255L96.1396 31.4064H89.5085L89.5064 0Z" fill="#E2F434"/>
<path d="M164.4 9.28121H168.002V4.28622H174.624V9.28121H180.772V15.1221H174.624V25.2955H190.845V31.4001H168.004V15.1221H164.402L164.4 9.28121Z" fill="#E2F434"/>
<path d="M114.49 24.0995C114.49 19.8091 118.049 16.8897 123.357 16.8897C125.202 16.8897 126.783 17.1006 128.188 17.6406V15.12H117.21V9.28122H134.817V31.3958H128.188V30.069C126.915 31.1237 125.028 31.7565 123.008 31.7565C117.08 31.7523 114.49 27.6834 114.49 24.0995ZM128.188 24.3632V22.1083C126.992 21.6682 125.729 21.4433 124.456 21.4438C122.172 21.4438 121.163 22.4184 121.163 23.568C121.163 25.072 122.48 25.6478 124.061 25.6478C125.861 25.6478 127.266 25.1605 128.188 24.3632Z" fill="#E2F434"/>
<path d="M139.997 9.33396H146.611V20.5896L154.586 9.33185H161.201V31.4022H154.589V20.1466L146.615 31.4022H139.999L139.997 9.33396Z" fill="#E2F434"/>
<path d="M25.5613 0H32.3285V31.4106H25.5634L25.5613 0Z" fill="#E2F434"/>
<path d="M191 45.9505H184.92V52.0761H191V45.9505Z" fill="#E2F434"/>
<path d="M123.719 42.8012C124.219 42.2643 124.825 41.8386 125.498 41.5513C126.171 41.2639 126.896 41.1214 127.626 41.1327C128.155 41.1216 128.681 41.2066 129.18 41.3837C129.663 41.5726 130.115 41.8321 130.522 42.1536V36.9688H133.818V52.789H130.522V51.958C130.173 52.2966 129.755 52.5556 129.297 52.7173C128.761 52.9136 128.193 53.0101 127.622 53.0021C126.89 53.0106 126.165 52.8649 125.492 52.5743C124.819 52.2837 124.214 51.8546 123.715 51.3146C123.194 50.7849 122.781 50.1561 122.503 49.4647C122.21 48.7345 122.062 47.9531 122.069 47.1655C122.069 45.3331 122.619 43.8784 123.719 42.8012ZM130.522 47.1655C130.531 46.7343 130.484 46.3039 130.382 45.8851C130.281 45.522 130.122 45.1779 129.911 44.8663C129.848 44.8177 129.701 44.727 129.492 44.592C129.283 44.457 129.042 44.3326 128.799 44.2124C128.568 44.0976 128.315 44.0371 128.058 44.0352C127.712 44.0401 127.37 44.1163 127.054 44.2593C126.738 44.4022 126.455 44.6088 126.222 44.8663C125.932 45.1452 125.706 45.4851 125.562 45.8619C125.425 46.2823 125.362 46.7233 125.374 47.1655C125.366 47.5495 125.43 47.9315 125.562 48.2919C125.71 48.6494 125.936 48.9693 126.222 49.2284C126.45 49.4939 126.732 49.7074 127.048 49.8547C127.365 50.002 127.709 50.0797 128.058 50.0827C128.338 50.0808 128.613 50.0083 128.858 49.8718C129.109 49.7389 129.461 49.5216 129.917 49.22C130.323 48.6139 130.534 47.8966 130.522 47.1655Z" fill="#D6D6D6"/>
<path d="M135.583 46.9756C135.563 46.22 135.697 45.4682 135.977 44.7666C136.256 44.0651 136.675 43.4285 137.208 42.8961C138.291 41.8049 139.648 41.2599 141.28 41.2614C142.03 41.2441 142.775 41.38 143.471 41.661C144.167 41.942 144.799 42.3621 145.33 42.8961C145.863 43.4299 146.284 44.066 146.568 44.7667C146.853 45.4675 146.995 46.2186 146.986 46.9756C147.004 47.7277 146.869 48.4755 146.59 49.1731C146.311 49.8707 145.892 50.5033 145.361 51.032C144.278 52.1218 142.92 52.6667 141.289 52.6667C139.657 52.6667 138.299 52.1218 137.216 51.032C136.129 49.9885 135.584 48.6364 135.583 46.9756ZM138.761 46.9756C138.734 47.6938 138.979 48.3956 139.448 48.9374C139.679 49.1948 139.963 49.3982 140.28 49.5334C140.598 49.6686 140.94 49.7323 141.284 49.7199C141.632 49.7199 141.976 49.6481 142.296 49.509C142.599 49.3827 142.865 49.1827 143.073 48.9268C143.556 48.3899 143.81 47.683 143.78 46.9588C143.78 46.115 143.544 45.459 143.073 44.9907C142.665 44.4845 142.069 44.2313 141.284 44.2313C140.942 44.2157 140.6 44.2755 140.283 44.4067C139.966 44.5378 139.681 44.7371 139.448 44.9907C138.99 45.497 138.761 46.1551 138.761 46.9756Z" fill="#D6D6D6"/>
<path d="M166.892 41.2846V52.7152H163.502V44.2482H159.476V52.7152H156.125V44.2482H152.132V52.7152H148.743V41.2846H166.892Z" fill="#D6D6D6"/>
<path d="M168.657 46.9757C168.637 46.2199 168.77 45.468 169.05 44.7664C169.329 44.0647 169.749 43.4282 170.282 42.8961C171.363 41.8049 172.721 41.26 174.354 41.2614C175.102 41.245 175.846 41.3814 176.54 41.6624C177.234 41.9434 177.864 42.363 178.393 42.8961C178.925 43.4303 179.345 44.0667 179.628 44.7674C179.911 45.4682 180.051 46.2191 180.041 46.9757C180.06 47.7276 179.925 48.4753 179.646 49.173C179.367 49.8706 178.949 50.5032 178.418 51.032C177.334 52.1218 175.976 52.6667 174.346 52.6667C172.715 52.6667 171.358 52.1218 170.273 51.032C169.194 49.9885 168.656 48.6364 168.657 46.9757ZM171.835 46.9757C171.804 47.6956 172.048 48.4001 172.518 48.9437C172.749 49.2014 173.033 49.405 173.35 49.5402C173.667 49.6754 174.01 49.7389 174.354 49.7263C174.702 49.7262 175.046 49.6545 175.365 49.5153C175.668 49.3891 175.935 49.189 176.142 48.9332C176.625 48.396 176.879 47.689 176.848 46.9651C176.848 46.1214 176.613 45.4653 176.142 44.9971C175.733 44.4908 175.137 44.2377 174.354 44.2377C174.012 44.2217 173.67 44.2814 173.353 44.4126C173.035 44.5438 172.75 44.7433 172.518 44.9971C172.061 45.497 171.835 46.1551 171.835 46.9757Z" fill="#D6D6D6"/>
</g>
<defs>
<clipPath id="clip0">
<rect width="191" height="53" fill="white"/>
</clipPath>
</defs>
</svg>
